<?xml version="1.0" standalone="no"?>
<!DOCTYPE svg PUBLIC "-//W3C//DTD SVG 20010904//EN"
 "http://www.w3.org/TR/2001/REC-SVG-20010904/DTD/svg10.dtd">
<svg version="1.0" xmlns="http://www.w3.org/2000/svg"
 width="1024.000000pt" height="1024.000000pt" viewBox="0 0 1024.000000 1024.000000"
 preserveAspectRatio="xMidYMid meet">
<metadata>
Created by potrace 1.14, written by Peter Selinger 2001-2017
</metadata>
<g transform="translate(0.000000,1024.000000) scale(0.100000,-0.100000)"
fill="#000000" stroke="none">
<path d="M6975 7032 c-38 -59 -73 -108 -77 -110 -5 -2 -8 -9 -8 -16 0 -7 -8
-21 -17 -32 -28 -30 -193 -283 -193 -294 0 -5 -4 -10 -8 -10 -4 0 -21 -22 -37
-50 -16 -27 -33 -50 -37 -50 -4 0 -8 -6 -8 -13 0 -8 -11 -27 -24 -42 -13 -15
-30 -40 -38 -54 -7 -14 -15 -28 -18 -31 -8 -7 -60 -89 -60 -93 0 -2 50 -4 111
-3 106 1 113 2 122 24 6 12 14 22 19 22 4 0 8 6 8 13 0 7 8 22 18 33 18 20 56
76 141 208 l51 78 -1 -1075 c0 -1195 4 -1116 -67 -1218 -27 -40 -104 -119
-116 -119 -3 0 -21 -11 -41 -24 -123 -84 -327 -93 -476 -22 -66 31 -89 48
-148 107 -63 63 -78 85 -102 148 -20 54 -21 75 -22 751 l-2 695 -85 -2 c-47 0
-94 -1 -105 -2 -20 -1 -20 -7 -18 -703 1 -679 2 -705 22 -766 50 -153 168
-306 297 -385 60 -37 174 -91 174 -82 0 2 12 0 28 -6 56 -22 215 -30 310 -16
69 10 178 52 250 96 179 109 301 288 337 496 7 39 7 204 0 890 -3 394 -7 1148
-6 1194 l1 34 24 -44 c13 -24 58 -102 99 -174 l75 -130 127 -3 127 -3 -28 48
c-15 26 -44 73 -63 103 -20 30 -41 64 -47 75 -6 11 -70 114 -143 229 -72 115
-131 212 -131 216 0 4 -9 15 -20 25 -11 10 -20 22 -20 28 0 7 -99 167 -104
167 0 0 -32 -49 -71 -108z"/>
<path d="M3312 5590 c-12 -9 -8 -1720 3 -1721 32 -3 197 1 203 5 4 2 7 102 6
221 l-1 216 43 47 c24 26 44 50 44 54 0 5 6 8 13 8 8 0 45 -44 83 -97 38 -54
77 -107 86 -117 10 -11 18 -25 18 -32 0 -7 3 -14 8 -16 4 -1 32 -37 62 -78
144 -199 153 -210 174 -211 69 -3 228 0 232 4 4 3 -48 79 -83 122 -5 6 -22 28
-38 50 -17 22 -36 46 -42 53 -7 7 -13 17 -13 21 0 4 -8 16 -17 27 -10 10 -45
55 -77 99 -33 44 -63 82 -68 83 -4 2 -8 8 -8 13 0 4 -36 55 -80 113 l-79 104
20 24 c21 23 204 220 289 309 90 94 126 134 133 145 4 7 -33 10 -118 10 -137
-1 -134 0 -195 -75 -19 -24 -42 -51 -51 -60 -9 -9 -40 -45 -70 -81 -29 -36
-56 -67 -59 -70 -3 -3 -28 -32 -55 -65 -28 -33 -54 -65 -60 -71 -11 -13 -64
-79 -81 -102 -8 -11 -11 134 -11 522 0 295 -3 539 -7 543 -7 8 -195 11 -204 3z"/>
<path d="M261 5501 c-5 -4 -12 -42 -15 -86 -12 -171 -18 -252 -21 -300 -2 -27
-7 -95 -11 -150 -3 -55 -8 -122 -10 -150 -4 -51 -7 -102 -19 -280 -3 -55 -8
-116 -10 -135 -2 -19 -6 -82 -10 -140 -3 -58 -8 -125 -10 -150 -15 -216 -16
-240 -3 -241 39 -2 180 0 184 3 6 7 13 69 19 183 11 197 14 239 20 320 17 246
36 643 39 837 1 32 4 58 7 58 3 0 14 -35 24 -77 11 -43 20 -80 20 -83 1 -3 10
-32 20 -65 10 -33 20 -64 21 -70 3 -16 61 -194 141 -430 41 -121 76 -224 77
-230 2 -5 6 -17 9 -25 3 -8 26 -78 52 -155 26 -77 49 -147 53 -155 3 -8 6 -17
7 -20 0 -3 7 -22 14 -42 14 -41 9 -39 116 -41 l60 -1 57 155 c31 85 60 163 63
174 4 11 8 22 10 25 6 16 17 45 51 140 20 58 42 119 49 135 7 17 18 48 25 70
7 22 17 46 23 53 5 6 7 12 3 12 -4 0 0 13 9 30 8 16 15 31 15 32 -1 4 0 9 44
133 42 122 123 370 132 408 13 57 19 31 20 -91 1 -117 8 -306 19 -492 3 -41 7
-124 10 -185 3 -60 8 -141 10 -180 10 -141 16 -252 19 -333 2 -45 6 -85 9 -88
5 -6 36 -7 144 -5 l62 1 -4 63 c-2 34 -7 105 -10 157 -3 52 -8 129 -11 170 -4
75 -12 201 -19 315 -2 33 -6 103 -9 155 -4 52 -8 127 -11 165 -2 39 -7 117
-10 175 -3 58 -8 128 -10 155 -2 28 -7 100 -10 160 -4 61 -9 113 -11 116 -2 3
-62 5 -134 5 l-131 -1 -19 -44 c-11 -24 -20 -48 -20 -55 0 -6 -7 -24 -15 -39
-8 -15 -19 -42 -24 -60 -5 -18 -44 -124 -86 -237 -163 -439 -295 -834 -295
-887 0 -10 -3 -13 -9 -8 -8 9 -17 39 -55 185 -3 8 -14 47 -26 85 -13 39 -24
77 -25 85 -2 8 -4 15 -4 15 -1 0 -34 97 -75 215 -41 118 -95 274 -120 345 -26
72 -49 137 -51 145 -2 8 -20 60 -40 115 -21 55 -38 105 -39 112 -1 7 -6 16
-10 20 -9 10 -250 13 -265 4z"/>
<path d="M8933 5420 c-27 -11 -50 -48 -132 -210 -35 -69 -78 -152 -96 -185
-18 -33 -67 -127 -110 -210 -43 -82 -94 -181 -115 -220 -35 -65 -142 -272
-221 -425 -39 -76 -55 -91 -89 -85 -14 3 -40 7 -59 10 -58 10 -179 65 -239
109 -109 80 -195 194 -228 301 -20 61 -26 192 -13 260 17 93 103 243 170 300
91 77 195 135 269 149 3 1 10 4 15 8 6 3 108 6 228 6 120 1 231 3 246 7 55 12
71 108 25 150 -30 28 -15 27 -302 26 -226 0 -278 -9 -390 -67 -203 -106 -350
-265 -417 -454 -32 -89 -36 -110 -39 -223 -11 -381 287 -709 714 -786 72 -13
134 -7 162 15 15 12 24 24 21 28 -3 3 -2 6 4 6 5 0 27 35 47 78 36 73 94 185
146 282 13 25 24 47 25 50 0 3 6 14 12 25 6 11 48 92 93 180 45 88 106 205
135 260 29 55 76 146 106 203 29 56 56 99 60 95 3 -5 60 -111 124 -238 65
-126 147 -286 182 -354 35 -68 63 -124 61 -126 -2 -2 -12 -5 -23 -7 -17 -2
-30 17 -80 117 -33 66 -62 122 -65 125 -3 3 -47 89 -98 191 -58 117 -98 186
-107 186 -8 0 -15 -7 -15 -14 0 -16 83 -188 101 -209 6 -7 12 -19 13 -26 1 -7
8 -24 16 -38 7 -14 27 -52 43 -85 15 -33 32 -67 37 -75 25 -43 90 -179 90
-187 0 -13 -223 -77 -334 -97 -16 -3 -30 -7 -32 -9 -2 -1 28 -49 66 -105 39
-57 70 -105 70 -107 0 -3 16 -29 35 -59 19 -30 35 -59 35 -64 0 -5 7 -15 15
-22 12 -10 27 -5 80 24 36 21 65 39 65 41 0 2 -18 54 -40 116 -22 62 -39 116
-38 121 5 13 121 59 136 53 6 -2 12 -11 12 -19 0 -8 3 -16 8 -18 4 -1 23 -37
42 -78 19 -41 37 -77 40 -80 3 -3 22 -39 42 -80 47 -97 115 -170 157 -170 19
0 12 38 -8 45 -17 5 -59 48 -89 90 -4 6 -42 81 -85 168 -65 129 -77 160 -67
172 9 11 16 12 25 5 6 -5 51 -88 100 -183 101 -199 118 -217 214 -221 61 -2
91 7 91 28 0 7 -20 51 -44 97 -132 254 -186 362 -184 364 2 1 75 39 163 84 88
44 173 89 190 98 16 10 58 35 93 56 35 20 68 37 73 37 5 0 9 4 9 9 0 5 11 12
25 15 14 4 25 11 25 16 0 6 6 10 13 10 7 0 23 9 34 19 12 11 23 18 26 15 2 -3
7 2 11 11 3 9 3 15 -1 13 -5 -3 -23 -11 -40 -18 -18 -8 -33 -18 -33 -23 0 -4
-4 -5 -10 -2 -5 3 -10 1 -10 -6 0 -7 -3 -9 -6 -6 -4 4 -19 0 -33 -8 -29 -17
-200 -95 -206 -95 -4 0 -97 -40 -140 -61 -67 -31 -221 -87 -226 -81 -4 4 -36
64 -73 134 -124 240 -240 463 -324 628 -46 91 -91 172 -100 181 -23 23 -52 29
-79 19z"/>
<path d="M4909 5076 c-2 -2 -31 -6 -64 -9 -121 -12 -234 -67 -316 -154 -39
-42 -93 -118 -94 -133 -1 -3 -7 -16 -14 -29 -31 -55 -65 -228 -64 -316 1 -47
15 -154 24 -188 13 -50 64 -160 88 -190 77 -97 199 -174 316 -198 62 -12 252
-16 317 -5 99 16 207 49 218 67 7 10 -20 133 -31 144 -4 3 -24 -1 -45 -10
-109 -43 -332 -54 -429 -20 -52 18 -127 66 -157 100 -45 51 -95 192 -93 265 0
13 53 15 408 16 224 1 411 4 414 8 21 20 1 254 -27 321 -56 137 -135 233 -227
278 -60 28 -80 34 -154 43 -30 3 -57 8 -60 10 -3 2 -8 2 -10 0z m107 -185 c98
-43 164 -159 168 -291 l1 -25 -308 0 -309 -1 6 40 c9 55 58 156 96 200 84 95
230 128 346 77z"/>
<path d="M2408 5065 c-2 -3 -18 -7 -34 -9 -72 -9 -221 -65 -235 -88 -4 -6 1
-31 12 -55 10 -24 18 -44 17 -46 0 -1 2 -12 6 -24 7 -21 7 -21 64 8 74 39 117
49 221 56 94 6 146 -6 200 -45 27 -20 73 -81 77 -102 0 -3 3 -16 7 -30 3 -14
8 -44 10 -67 4 -41 3 -43 -22 -44 -297 -10 -473 -65 -585 -183 -112 -118 -128
-327 -36 -455 35 -48 101 -97 157 -118 41 -16 197 -21 252 -10 87 19 241 120
241 158 0 7 2 10 5 7 7 -6 10 -25 19 -98 l7 -55 96 2 c53 2 97 4 99 5 1 2 -1
23 -6 48 -4 24 -9 107 -9 185 -4 400 -9 603 -14 625 -39 161 -104 249 -222
301 -25 11 -56 23 -68 26 -29 7 -253 14 -259 8z m347 -730 l0 -131 -34 -57
c-59 -97 -159 -149 -271 -142 -33 2 -72 11 -87 19 -106 55 -132 216 -51 318
31 40 128 93 188 104 79 14 138 20 195 19 l60 0 0 -130z"/>
<path d="M195 3770 l-60 -5 0 -335 0 -335 4843 -3 c4607 -2 4842 -1 4843 15 4
87 0 655 -4 659 -7 7 -9538 11 -9622 4z"/>
</g>
</svg>
